<svg id="Capa_1" data-name="Capa 1" xmlns="http://www.w3.org/2000/svg" viewBox="0 0 240.8 190"><defs><style>.cls-1{fill:#302e19;}</style></defs><path d="M307.36,152.56l-15.73,8.93c-16.52-21-38.14-32.37-65.43-32.1a75.9,75.9,0,0,0-52,20.55c-29,26.59-33.48,69.49-10.86,100.37a79.4,79.4,0,0,0,100.49,24c33-16.65,53.24-57.67,35.72-99.09l15.39-8.79c15.62,27.15,16,81.5-28.23,115.07C243.08,314.61,179.9,305,147.92,260.41c-31.43-43.82-18.79-105.65,27.54-134.36S280.4,112.55,307.36,152.56Z" transform="translate(-130.61 -111.22)"/><path d="M282.05,185.05c10.77,24.64,1.38,58.07-27.77,72.47s-64.18,3.33-79-25c-14.68-28-3.65-62.52,24.57-77.23,29-15.11,61.18-2.92,74.27,16.12-5.4,3.07-10.73,6.24-16.23,9.08-.79.41-2.73-.39-3.61-1.19a39.41,39.41,0,0,0-28.45-10.64c-18.12.41-35.39,16.58-36.38,34.07A38.54,38.54,0,0,0,221,243.16c19.86,3.48,43.73-10.25,44.93-36.51.13-2.94-.64-6-1.18-8.89-.34-1.87-.1-3,1.86-4C271.79,191.05,276.79,188,282.05,185.05Z" transform="translate(-130.61 -111.22)"/><path d="M359.42,118.69c-.8,4.64-1.1,8.37-2.13,11.91-1.12,3.83.4,5.05,4,5.64,3.18.52,6.26,1.62,10.15,2.67-8.78,5-17,9.21-24.77,14.13-4.45,2.8-8.49,3.36-13.37,1.62a7.93,7.93,0,0,0-5.77.66q-46.08,25.89-92,52c-1.16.66-2.38,1.22-3.59,1.78-2.42,1.14-4.31.42-5.6-1.74s-.63-4.26,1.44-5.63c2.43-1.61,5-3,7.57-4.44q43.64-24.66,87.3-49.28c2.44-1.37,4-2.93,4.28-5.74.45-4.53,3-7.31,7.19-9.45C342.41,128.59,350.44,123.75,359.42,118.69Z" transform="translate(-130.61 -111.22)"/><path d="M246.17,205.44c1.05,8.5-6.48,17.07-14.21,18.78-8.9,2-18-2-21.93-9.83a19,19,0,0,1,4.85-23.18c6.47-5.34,16.8-5.52,24.28-.08-3,1.7-5.75,3.27-8.52,4.87-1.48.85-3,1.7-4.37,2.65-4,2.67-5,6.79-2.71,10.63a7.82,7.82,0,0,0,10.56,2.79C238.11,210.08,241.94,207.79,246.17,205.44Z" transform="translate(-130.61 -111.22)"/><path class="cls-1" d="M228.66,170.43" transform="translate(-130.61 -111.22)"/></svg>