<svg id="Capa_1" data-name="Capa 1" xmlns="http://www.w3.org/2000/svg" viewBox="0 0 148.13 74.97"><path d="M175,94.88c-2.67,3.6-6.4,6-9.86,8.71a156.77,156.77,0,0,1-26,16.5,100.06,100.06,0,0,1-26.29,9.35,64.23,64.23,0,0,1-10.88,1.19c-8.16.13-16-1.6-23.76-4.19a104.62,104.62,0,0,1-19.41-8.6c-6.47-3.77-12.73-7.93-18.94-12.13-3.51-2.38-6.71-5.22-10.09-7.79-3.67-2.79-3.88-6.69-.21-9.42,6.45-4.81,12.83-9.74,19.47-14.3A123.05,123.05,0,0,1,72,62.05a95.06,95.06,0,0,1,17-5.24,58.16,58.16,0,0,1,8.85-1,49.16,49.16,0,0,1,9.08.06,95.6,95.6,0,0,1,12.28,2.55A101.49,101.49,0,0,1,145.69,69.9c6.06,3.71,12,7.63,17.85,11.66,3.26,2.24,6.25,4.86,9.31,7.38a20.89,20.89,0,0,1,2.1,2.38ZM127.56,91a26.5,26.5,0,0,0-26.69-24.68C85.81,66.49,74.34,77.7,74.19,93c-.14,14.38,10.79,26.62,26.74,26.86A26.61,26.61,0,0,0,127.56,91ZM39.63,93.08C42.78,96.76,65,111,69.87,112.42c-7.33-12.89-7.19-25.76,0-38.68C64.65,75.47,43.31,89.14,39.63,93.08Zm122.84,0a180.08,180.08,0,0,0-30.61-19.62c7.37,13.2,7.49,26.06.09,39.08A173.81,173.81,0,0,0,162.47,93.11Z" transform="translate(-26.82 -55.66)"/><path d="M116.31,93.3c.59,7.67-7.06,15.88-16.23,15.37A15.79,15.79,0,0,1,85.53,91.88c.42-6.65,6.9-13.9,15.08-14.07C109.08,77.63,116.88,85.32,116.31,93.3Zm-25.45-.58c0,1.74.8,2.87,2,2.87a2.43,2.43,0,0,0,2.2-2.27,6,6,0,0,1,6-5.89c1.06,0,2.29-1.25,2.1-2.21a2.2,2.2,0,0,0-2.09-2.06A9.89,9.89,0,0,0,90.86,92.72Z" transform="translate(-26.82 -55.66)"/></svg>